<?xml version="1.0" encoding="utf-8"?>
<!-- Generator: Adobe Illustrator 22.0.1, SVG Export Plug-In . SVG Version: 6.00 Build 0)  -->
<svg version="1.1" id="Layer_1" xmlns="http://www.w3.org/2000/svg" xmlns:xlink="http://www.w3.org/1999/xlink" x="0px" y="0px"
	 viewBox="0 0 100 54" style="enable-background:new 0 0 100 54;" xml:space="preserve">
<style type="text/css">
	.st0{fill:#39B54A;}
	.st1{fill:#B3B3B3;}
	.st2{fill:#FFFFFF;}
	.st3{fill:none;stroke:#FFFFFF;stroke-miterlimit:10;}
	.st4{fill:#999999;stroke:#FFFFFF;stroke-miterlimit:10;}
	.st5{fill:none;}
	.st6{font-family:'MyriadPro-Regular';}
	.st7{font-size:30px;}
	.st8{fill:#666666;stroke:#FFFFFF;stroke-width:0.25;stroke-miterlimit:10;}
	.st9{fill:#F2F2F2;stroke:#FFFFFF;stroke-miterlimit:10;}
</style>
<polygon class="st0" points="3.7,45.2 19.4,45.2 54,45.2 54,49.2 3.7,49.2 "/>
<rect x="21.7" y="42.7" class="st1" width="16.3" height="2.5"/>
<polygon class="st2" points="3.8,45.2 3.8,13.2 5.8,13.2 7.8,14.1 7.8,45.2 "/>
<path class="st3" d="M19.9,35.5c-4.2-1.6-7.2-5.6-7.2-10.3c0-4.7,3-8.8,7.2-10.3"/>
<path class="st3" d="M27.3,14.7c4.4,1.5,7.5,5.6,7.5,10.4c0,4.9-3.2,9-7.5,10.4"/>
<path class="st3" d="M25.4,19.8c2.1,0.8,3.6,2.8,3.6,5.2c0,2.3-1.4,4.3-3.5,5.1"/>
<path class="st3" d="M21.8,30.2c-2.2-0.7-3.8-2.8-3.8-5.2c0-2.5,1.6-4.5,3.8-5.2"/>
<rect x="40.9" y="14.5" class="st4" width="9.8" height="23.3"/>
<rect x="57.8" y="25" class="st5" width="45.6" height="35.1"/>
<text transform="matrix(1 0 0 1 57.7783 46.3486)" class="st2 st6 st7">AB</text>
<rect x="41.4" y="15.6" class="st8" width="8.8" height="20.9"/>
<path class="st9" d="M35.7,6.6c-3.4,2.1-2.3,4.7,0,7.5c0.8,3,3.2,3.2,6.8,1.5c2.2,2,4.6,1.7,7.1,0c2.9,1.3,4.8,1.2,4.9-1.5
	c2.6-2.1,3.5-4.6,0-7.5c1.4-2.5-1-2.6-4.5-1.9c-1.8-1.8-4.5-1.4-7.5,0C38.9,3.2,36.6,3.7,35.7,6.6z"/>
</svg>
